<svg width="16" height="16" viewBox="0 0 16 16" fill="none" xmlns="http://www.w3.org/2000/svg">
<path d="M10.9609 2.39941C12.8218 2.39957 14.3339 3.91565 14.334 5.79297C14.334 6.45529 14.2417 7.0731 14.0781 7.65137L14.0039 7.89746L14.0029 7.89941C13.5001 9.49052 12.4695 10.7728 11.3574 11.7285C10.3831 12.5659 9.36053 13.1395 8.61035 13.4434L8.30664 13.5576L8.30273 13.5586C8.23621 13.582 8.12686 13.5996 8.00098 13.5996C7.9379 13.5996 7.87865 13.5952 7.82715 13.5879L7.69824 13.5586L7.69434 13.5576L7.39062 13.4434C6.64046 13.1395 5.6178 12.5658 4.64355 11.7285C3.60107 10.8325 2.63019 9.64961 2.09863 8.19434L1.99805 7.89941V7.89746L1.92383 7.65137C1.76025 7.07305 1.66699 6.45535 1.66699 5.79297C1.66705 3.91555 3.18003 2.39941 5.04102 2.39941C6.13757 2.39953 7.12008 2.93319 7.7334 3.75293L8.00098 4.10938L8.26758 3.75293C8.88096 2.93307 9.86421 2.39941 10.9609 2.39941Z" fill="#EF4444" stroke="#EF4444" stroke-width="0.666667"/>
</svg>
